<svg width="11" height="20" viewBox="0 0 11 20" fill="none" xmlns="http://www.w3.org/2000/svg">
<path d="M10.6258 0.387281C10.508 0.264519 10.3681 0.16712 10.214 0.100664C10.0599 0.0342076 9.8947 0 9.72788 0C9.56105 0 9.39586 0.0342076 9.24178 0.100664C9.08769 0.16712 8.94773 0.264519 8.82991 0.387281L0.296727 9.25637C0.202666 9.35394 0.128041 9.46982 0.0771246 9.5974C0.0262081 9.72498 0 9.86174 0 9.99986C0 10.138 0.0262081 10.2747 0.0771246 10.4023C0.128041 10.5299 0.202666 10.6458 0.296727 10.7433L8.82991 19.6124C9.32709 20.1292 10.1287 20.1292 10.6258 19.6124C11.123 19.0957 11.123 18.2626 10.6258 17.7458L3.17833 10.0051L10.636 2.2539C11.123 1.73716 11.123 0.90403 10.6258 0.387281Z" fill="white"/>
</svg>
