<svg width="11" height="20" viewBox="0 0 11 20" fill="none" xmlns="http://www.w3.org/2000/svg">
<path d="M0.374161 19.6127C0.491976 19.7355 0.631934 19.8329 0.786021 19.8993C0.940108 19.9658 1.1053 20 1.27212 20C1.43895 20 1.60414 19.9658 1.75822 19.8993C1.91231 19.8329 2.05227 19.7355 2.17009 19.6127L10.7033 10.7436C10.7973 10.6461 10.872 10.5302 10.9229 10.4026C10.9738 10.275 11 10.1383 11 10.0001C11 9.86202 10.9738 9.72526 10.9229 9.59768C10.872 9.47011 10.7973 9.35422 10.7033 9.25666L2.17009 0.387562C1.67291 -0.129187 0.871339 -0.129187 0.374161 0.387562C-0.123016 0.90431 -0.123016 1.73744 0.374161 2.25418L7.82167 9.99487L0.364015 17.7461C-0.123016 18.2628 -0.123016 19.096 0.374161 19.6127Z" fill="white"/>
</svg>
