<svg width="23" height="30" viewBox="0 0 23 30" fill="none" xmlns="http://www.w3.org/2000/svg">
<path d="M7.75 16.4543H15.25M7.75 21.7496H11.5M1.5 4.53976V25.7211C1.5 26.4233 1.76339 27.0968 2.23223 27.5933C2.70107 28.0898 3.33696 28.3688 4 28.3688H19C19.663 28.3688 20.2989 28.0898 20.7678 27.5933C21.2366 27.0968 21.5 26.4233 21.5 25.7211V10.2879C21.5 9.93513 21.4334 9.58597 21.3041 9.26088C21.1749 8.93579 20.9857 8.64132 20.7475 8.39477L15.1975 2.64668C14.7305 2.16302 14.1032 1.89218 13.45 1.89209H4C3.33696 1.89209 2.70107 2.17104 2.23223 2.66757C1.76339 3.16411 1.5 3.83755 1.5 4.53976Z" stroke="white" stroke-width="2" stroke-linecap="round" stroke-linejoin="round"/>
</svg>
