<svg width="148" height="129" viewBox="0 0 148 129" fill="none" xmlns="http://www.w3.org/2000/svg">
<path d="M80.1675 6.00662V8.63452C81.812 8.93485 83.4051 9.31026 84.844 9.68567C88.1329 10.5366 90.0857 13.8403 89.2121 17.0438C88.3385 20.2473 84.9468 22.1494 81.6578 21.2985C78.8571 20.5727 76.2363 20.0721 73.898 20.0471C72.0223 20.0221 70.1209 20.4726 68.9133 21.1483C68.3737 21.4737 68.1167 21.749 68.0139 21.8991C67.9369 22.0243 67.8341 22.1995 67.8341 22.5999V22.7501C67.8855 22.8001 68.0653 23.0504 68.682 23.4008C70.1723 24.2768 72.382 24.9525 75.7224 25.9286L75.9536 26.0037C78.8057 26.8296 82.6085 27.9558 85.6919 29.8329C89.2121 31.9852 92.3982 35.5642 92.4753 41.0703C92.5524 46.7015 89.5461 50.806 85.6148 53.2086C83.8933 54.2348 82.0433 54.9606 80.1418 55.4111V58.064C80.1418 61.3927 77.3925 64.0706 73.9751 64.0706C70.5577 64.0706 67.8084 61.3927 67.8084 58.064V55.2108C65.3674 54.6352 63.1319 53.8844 61.2305 53.2587C60.6909 53.0835 60.177 52.9083 59.6888 52.7581C56.4513 51.707 54.7041 48.3032 55.7832 45.1498C56.8624 41.9963 60.3569 40.2944 63.5944 41.3456C64.2625 41.5708 64.8792 41.771 65.4702 41.9713C68.9646 43.1225 71.4827 43.9484 74.1807 44.0485C76.2363 44.1236 78.0606 43.6481 79.1141 43.0224C79.6023 42.7221 79.8335 42.4718 79.9363 42.2966C80.0391 42.1465 80.1675 41.8461 80.1418 41.2705V41.2204C80.1418 40.9701 80.1418 40.6949 79.1141 40.0692C77.6495 39.1682 75.4397 38.4674 72.1508 37.4913L71.6626 37.3412C68.8876 36.5403 65.2389 35.4641 62.3097 33.7372C58.8409 31.7099 55.5006 28.2311 55.4749 22.7C55.4492 16.9687 58.7895 13.0394 62.5924 10.8369C64.2368 9.88589 66.0097 9.23518 67.7827 8.78468V6.00662C67.7827 2.67795 70.532 0 73.9494 0C77.3668 0 80.1161 2.67795 80.1161 6.00662H80.1675ZM145.997 84.1678C149.363 88.6227 148.387 94.8796 143.813 98.1582L111.284 121.509C105.271 125.814 98.0254 128.141 90.5482 128.141H8.22231C3.67435 128.141 0 124.562 0 120.132V104.115C0 99.6849 3.67435 96.1059 8.22231 96.1059H17.678L29.2149 87.096C35.0476 82.541 42.2935 80.0883 49.7707 80.0883H90.4454C94.9934 80.0883 98.6677 83.6672 98.6677 88.0971C98.6677 92.527 94.9934 96.1059 90.4454 96.1059H69.8896C67.6285 96.1059 65.7785 97.9079 65.7785 100.11C65.7785 102.313 67.6285 104.115 69.8896 104.115H100.877L131.634 82.0404C136.208 78.7618 142.631 79.7128 145.997 84.1678Z" fill="white"/>
</svg>
